{"glyphs":{":":{"x_min":0,"x_max":297,"ha":297,"o":"m 75 94 q 75 119 92 131 q 108 143 127 143 q 132 144 135 144 l 147 145 l 150 144 q 184 144 203 130 q 223 116 223 77 l 223 67 q 223 4 167 4 l 162 3 l 151 2 l 146 2 l 144 3 q 109 3 92 18 q 75 32 75 58 l 74 70 l 74 83 q 75 90 75 94 z m 222 406 l 222 398 q 222 366 208 351 q 195 335 163 335 l 146 335 q 138 336 133 336 q 111 336 94 352 q 76 367 76 395 l 75 407 l 75 419 q 75 477 124 477 q 128 478 130 478 l 141 479 l 148 479 q 222 479 222 406 z"},"$":{"x_min":0,"x_max":566,"ha":566,"o":"m 390 155 l 390 174 q 390 201 365 231 q 339 260 320 260 q 315 260 315 208 l 315 147 l 314 140 l 314 123 l 314 119 q 314 116 314 114 l 313 109 q 313 104 313 100 l 313 93 l 313 84 q 313 75 319 75 l 323 75 q 345 75 367 101 q 390 127 390 155 z m 177 518 l 177 508 q 177 476 200 448 q 224 419 241 419 l 243 419 q 249 419 249 457 l 249 483 l 248 495 l 248 499 l 248 505 l 248 517 l 247 521 q 247 530 247 539 l 248 543 l 248 552 l 248 556 l 248 561 l 249 565 l 249 569 l 249 576 l 249 582 q 249 589 244 589 l 239 589 q 218 589 198 564 q 177 539 177 518 z m 495 207 l 495 191 q 495 125 452 78 q 428 52 404 41 q 380 29 350 20 q 320 11 312 3 q 304 -5 298 -40 q 292 -74 268 -74 q 247 -74 238 -51 q 225 -17 219 -12 q 198 6 157 20 q 116 33 97 50 q 65 79 65 105 q 65 132 76 144 q 87 156 103 156 q 119 156 158 122 q 198 88 231 88 q 248 88 254 109 q 261 130 261 197 q 261 264 246 283 q 238 292 178 330 q 118 367 96 403 q 74 440 74 493 q 74 546 109 590 q 132 618 167 636 q 179 642 209 651 q 240 661 249 668 q 257 675 264 703 q 271 731 292 731 q 308 731 319 720 l 326 711 l 336 693 q 348 676 370 666 q 432 637 450 620 q 468 603 468 579 q 468 556 457 543 q 446 531 432 531 q 417 531 384 556 q 351 582 333 582 q 314 582 308 558 q 302 535 302 466 q 302 434 314 417 q 326 400 383 365 q 495 296 495 207 z"},"?":{"x_min":0,"x_max":489,"ha":489,"o":"m 201 -1 q 174 -1 159 16 q 145 34 145 58 l 145 72 l 146 85 q 146 101 160 115 q 173 128 199 128 l 211 129 l 227 129 q 235 128 239 128 q 264 128 280 112 q 296 96 296 62 l 295 60 q 295 -1 242 -1 l 229 -2 l 213 -2 q 206 -1 201 -1 z m 230 203 q 175 203 175 270 q 175 307 188 335 q 202 363 233 398 q 264 433 273 450 q 297 491 297 523 q 297 555 280 574 q 262 592 234 592 q 205 592 167 562 q 128 532 104 532 q 79 532 66 548 q 54 563 54 582 l 54 589 q 54 629 103 661 q 151 693 220 693 l 240 693 q 321 693 375 645 q 429 597 429 528 l 429 519 q 429 468 394 413 q 377 389 333 346 q 288 303 281 291 q 273 279 269 250 q 264 220 258 211 q 252 203 230 203 z"},"<":{"x_min":0,"x_max":585,"ha":585,"o":"m 496 41 q 477 41 433 66 q 389 91 250 158 q 111 226 88 241 q 65 256 65 287 q 65 319 97 338 q 128 357 193 389 q 257 421 266 426 q 275 431 305 446 q 347 466 414 504 q 481 542 494 542 q 506 542 506 514 q 506 467 466 439 q 447 426 320 360 q 192 294 192 290 q 192 288 322 221 q 451 155 472 140 q 505 117 505 79 q 505 41 496 41 z"},"'":{"x_min":0,"x_max":261,"ha":261,"o":"m 93 467 q 85 529 85 548 l 83 574 q 79 599 79 610 l 76 656 l 76 667 q 76 689 82 695 q 96 709 123 709 l 143 709 q 167 709 177 701 q 187 693 187 674 l 187 653 l 187 649 l 186 635 l 184 617 l 183 603 q 182 592 182 588 q 182 500 161 450 q 152 430 127 430 l 121 430 q 93 430 93 467 z"},"=":{"x_min":0,"x_max":580,"ha":580,"o":"m 531 221 l 531 185 q 531 163 511 163 l 421 163 l 404 163 l 245 163 l 239 163 l 182 163 l 160 162 l 77 162 q 56 162 56 190 l 56 210 q 56 240 72 242 q 75 243 297 243 l 489 244 l 506 244 q 531 244 531 221 z m 532 401 l 532 391 q 532 357 521 353 q 509 349 405 349 l 182 349 q 87 349 71 352 q 56 354 56 375 l 56 411 q 56 431 71 434 q 91 437 188 437 l 417 437 q 511 437 521 433 q 532 429 532 401 z"},"a":{"x_min":0,"x_max":522,"ha":522,"o":"m 312 219 q 312 232 300 232 l 296 233 q 289 232 285 232 q 241 232 204 200 q 167 168 167 136 l 167 125 q 168 118 168 111 q 168 103 181 91 q 193 78 213 78 l 215 78 q 253 78 280 105 q 308 133 308 164 q 309 169 309 172 l 310 177 l 312 209 z m 182 -5 l 171 -5 q 125 -5 91 31 q 56 68 56 117 l 56 129 q 56 242 237 294 q 275 306 287 312 q 316 328 316 356 q 316 384 290 403 q 273 415 243 415 q 213 415 173 385 q 133 355 107 355 q 81 355 71 367 q 61 380 61 397 q 61 414 72 428 q 83 443 122 461 q 184 492 265 492 q 347 492 393 445 q 430 408 430 327 l 429 292 l 427 270 q 425 225 425 214 l 424 170 q 424 130 440 90 q 457 49 457 37 q 457 24 436 13 q 416 2 384 2 q 353 2 333 18 q 313 34 309 34 q 304 34 260 14 q 217 -5 182 -5 z"},"L":{"x_min":0,"x_max":560,"ha":560,"o":"m 208 3 q 124 3 93 18 q 73 27 73 56 q 73 66 79 83 q 85 100 93 128 q 100 156 100 345 q 100 535 97 557 q 93 580 79 606 q 65 633 65 654 q 65 675 87 687 q 98 693 129 693 l 141 693 q 211 693 236 682 q 261 670 261 638 q 261 626 251 600 q 241 573 235 548 q 229 522 229 450 l 229 437 q 229 423 229 407 l 229 294 q 229 146 238 124 q 252 93 312 93 q 372 93 429 116 q 485 139 505 139 q 535 139 535 98 l 535 74 q 535 21 502 8 q 491 4 338 4 l 287 3 z"},"3":{"x_min":0,"x_max":560,"ha":560,"o":"m 493 210 l 493 194 q 493 146 472 105 q 411 -13 240 -13 q 240 -13 239 -13 q 162 -13 109 15 q 57 43 57 83 q 57 100 68 113 q 79 126 100 126 q 121 126 171 102 q 221 79 260 79 q 298 79 332 106 q 365 134 365 186 q 365 271 285 295 q 271 299 244 305 q 216 311 213 312 q 190 323 190 351 q 190 372 238 393 q 333 433 333 516 q 333 542 312 560 q 291 578 254 578 q 218 578 169 554 q 121 530 111 530 q 78 530 78 559 q 78 609 126 637 q 189 673 281 673 q 372 673 417 636 q 462 599 462 536 q 462 473 417 424 q 373 375 373 374 q 373 367 409 346 q 493 295 493 210 z"},";":{"x_min":0,"x_max":304,"ha":304,"o":"m 170 151 q 196 151 209 136 q 223 122 223 87 l 223 67 q 223 -1 190 -52 q 158 -103 124 -126 q 107 -138 95 -138 l 88 -138 q 72 -138 72 -117 l 72 -112 q 72 -108 84 -92 q 97 -75 104 -65 q 123 -35 123 -6 q 123 2 112 14 q 102 26 99 30 q 87 51 87 84 q 87 117 101 135 q 115 152 151 152 l 159 152 q 166 151 170 151 z m 140 340 q 116 340 99 355 q 83 369 83 396 l 81 408 l 81 420 q 81 447 95 464 q 109 480 136 480 l 144 482 l 154 482 l 160 482 q 168 481 175 481 q 202 481 217 464 q 231 448 231 421 l 231 404 q 230 399 230 396 q 230 371 215 356 q 199 340 173 340 l 168 339 l 147 339 q 143 340 140 340 z"},"J":{"x_min":0,"x_max":473,"ha":473,"o":"m 168 -36 l 146 -36 q 90 -36 53 -11 q 15 14 15 43 q 15 73 30 88 q 44 104 60 104 q 76 104 108 93 q 141 82 161 82 q 181 82 199 102 q 217 122 229 158 q 249 221 249 364 l 249 401 l 249 413 q 248 424 248 463 q 248 501 240 531 q 231 562 215 592 q 199 622 199 646 q 199 671 222 682 q 244 692 291 692 l 335 692 q 367 692 385 676 q 403 659 403 638 q 403 618 394 584 q 384 550 380 510 q 377 470 377 335 q 377 201 370 151 q 363 101 337 59 q 312 17 268 -9 q 223 -36 168 -36 z"},"V":{"x_min":0,"x_max":654,"ha":654,"o":"m 569 685 q 604 685 617 674 q 631 663 631 640 q 631 617 603 576 q 574 534 554 483 q 534 432 480 281 l 436 161 q 397 56 392 44 q 373 3 328 3 q 283 3 262 43 q 253 59 186 250 l 127 414 q 108 468 97 498 q 85 527 56 573 q 27 618 27 638 q 27 657 40 671 q 52 685 85 685 q 169 685 193 667 q 216 648 216 596 q 216 522 321 232 q 337 188 343 188 q 359 188 440 453 q 468 542 474 568 q 481 595 483 623 q 484 651 488 659 q 499 685 569 685 z"},"\"":{"x_min":0,"x_max":433,"ha":433,"o":"m 146 709 q 177 709 177 673 l 177 663 l 176 659 l 176 648 l 174 631 l 173 617 q 170 591 170 583 q 170 494 150 450 q 142 432 119 432 l 112 432 q 83 432 83 472 q 81 491 81 498 q 80 505 79 516 q 78 526 77 534 q 77 542 76 551 q 73 574 73 578 l 72 593 l 71 596 l 71 600 l 70 614 l 69 618 l 67 653 l 67 670 q 67 692 79 701 q 90 710 116 710 l 136 710 q 142 709 146 709 z m 306 710 l 319 710 q 363 710 363 676 l 363 659 l 363 655 l 359 605 q 357 591 357 587 q 357 495 336 450 q 329 432 305 432 l 299 432 q 270 432 270 472 q 268 487 267 498 q 266 508 265 517 q 265 526 264 532 q 264 539 263 548 q 262 557 260 575 q 257 602 257 611 l 254 657 l 254 670 q 254 692 265 701 q 277 710 306 710 z"},"7":{"x_min":0,"x_max":556,"ha":556,"o":"m 263 21 q 247 -14 207 -14 l 195 -14 q 167 -14 155 -6 q 143 2 143 30 q 143 58 249 285 q 355 512 355 529 q 355 546 341 553 q 327 561 266 561 q 205 561 158 548 q 111 535 91 535 q 61 535 61 583 l 61 594 q 61 628 72 644 q 94 673 124 673 l 135 673 l 215 667 l 300 668 q 433 668 466 661 q 500 655 500 623 q 500 591 484 553 q 468 515 406 385 q 344 256 304 140 q 265 23 263 21 z"},"S":{"x_min":0,"x_max":565,"ha":565,"o":"m 463 322 q 515 268 515 186 q 515 104 450 50 q 385 -3 294 -3 l 277 -3 q 164 -3 104 24 q 79 36 63 59 q 47 82 47 109 l 47 124 q 47 172 89 172 q 108 172 144 142 q 180 111 212 97 q 243 82 286 82 q 329 82 360 106 q 392 130 392 173 q 392 215 350 248 q 327 265 240 306 q 154 347 121 379 q 63 436 63 513 q 63 590 122 642 q 181 694 272 694 l 290 694 q 396 694 445 670 q 494 647 494 580 q 494 558 482 547 q 470 537 457 537 q 443 537 387 573 q 330 608 282 608 q 233 608 209 584 q 186 560 186 524 q 186 489 232 457 q 233 456 332 406 q 430 356 463 322 z"},"}":{"x_min":0,"x_max":391,"ha":391,"o":"m 247 121 l 250 71 q 251 33 251 3 q 251 -70 204 -116 q 158 -163 85 -163 l 75 -163 q 53 -163 53 -145 q 53 -126 93 -87 q 132 -48 134 -43 q 149 -16 149 61 l 148 73 l 147 98 l 146 136 q 146 200 161 226 q 176 253 194 268 l 230 299 q 230 299 215 310 q 199 320 194 324 q 172 343 159 372 q 146 400 146 469 l 148 519 q 149 543 149 576 q 149 609 137 630 q 125 651 89 679 q 53 708 53 734 q 53 752 75 752 l 86 752 q 160 752 206 707 q 252 661 252 571 l 247 443 q 247 392 262 371 q 277 349 300 337 q 335 319 335 298 q 335 277 302 255 q 269 233 258 211 q 247 188 247 121 z"},"Z":{"x_min":0,"x_max":611,"ha":611,"o":"m 59 618 q 59 688 138 688 l 170 688 l 437 688 l 472 688 q 517 688 536 681 q 555 674 555 646 q 555 617 519 561 q 509 545 368 339 q 228 133 228 112 q 228 90 308 90 q 389 90 483 123 q 521 136 535 136 q 573 136 573 97 l 573 82 q 573 25 524 10 q 504 4 309 4 l 163 3 q 88 3 68 12 q 47 21 47 50 q 47 78 83 134 q 92 150 235 359 q 377 567 377 585 q 377 603 305 603 q 233 603 149 575 q 108 561 92 561 q 75 561 67 573 q 59 585 59 618 z"},"x":{"x_min":0,"x_max":538,"ha":538,"o":"m 379 -1 q 334 -1 319 21 q 314 29 309 52 q 305 75 297 91 q 266 161 252 161 q 238 161 204 96 q 190 70 184 45 q 178 20 176 17 q 164 -1 126 -1 l 86 -1 q 44 -1 44 12 q 44 25 120 123 q 196 221 196 241 q 196 253 125 355 q 54 457 54 467 q 54 487 78 491 q 103 495 154 495 q 205 495 221 477 q 229 468 233 450 q 236 432 241 420 q 267 350 283 350 q 299 350 330 410 q 339 428 346 453 q 353 479 364 486 q 374 494 426 494 q 478 494 478 474 q 478 465 410 379 q 342 292 342 268 q 342 253 417 145 q 492 37 492 28 q 492 7 473 3 q 453 -1 379 -1 z"},")":{"x_min":0,"x_max":375,"ha":375,"o":"m 300 322 l 300 276 q 300 219 284 146 q 249 -8 150 -118 q 110 -162 81 -162 q 51 -162 51 -142 q 51 -132 95 -59 q 138 13 163 94 q 188 174 188 296 q 188 494 110 625 q 52 721 52 723 q 52 749 75 749 l 83 749 q 111 749 157 700 q 247 604 285 444 q 300 376 300 322 z"},"&":{"x_min":0,"x_max":735,"ha":735,"o":"m 299 82 l 306 82 q 338 82 373 106 q 388 117 388 125 q 388 133 317 220 q 245 308 241 308 l 239 308 q 220 308 198 279 q 176 250 176 220 l 176 199 q 176 151 214 116 q 252 82 299 82 z m 376 538 l 376 555 q 376 579 362 600 q 347 621 324 621 l 315 621 q 292 621 278 600 q 264 580 264 558 l 264 546 l 264 543 l 264 539 q 265 534 265 532 q 265 511 295 463 q 306 445 314 445 l 316 445 q 326 445 351 475 q 376 504 376 538 z m 268 14 l 238 14 q 170 14 118 61 q 89 86 74 119 q 60 152 60 178 l 60 194 q 60 273 143 349 q 188 391 188 409 q 188 414 177 442 q 165 471 164 473 q 149 512 149 545 q 149 604 189 643 q 229 682 294 682 q 359 682 402 641 q 445 601 445 526 q 445 512 434 473 q 424 435 419 393 q 414 351 414 347 q 414 320 429 305 q 445 291 469 291 q 492 291 524 317 q 557 342 596 342 q 635 342 635 313 q 635 302 610 252 q 584 203 584 168 q 584 134 628 95 q 672 56 672 52 q 672 23 607 23 q 606 23 568 30 q 530 37 486 37 l 411 39 q 406 39 354 27 q 301 14 268 14 z"},"_":{"x_min":0,"x_max":518,"ha":518,"o":"m 519 -91 l 519 -123 q 519 -137 486 -137 l 36 -137 q 0 -137 0 -115 l 0 -88 q 0 -74 38 -74 l 495 -74 q 519 -74 519 -91 z"},"v":{"x_min":0,"x_max":521,"ha":521,"o":"m 500 458 l 500 450 q 500 437 457 366 q 446 349 385 199 l 315 29 q 299 2 267 2 l 257 2 q 218 2 199 37 q 195 44 137 195 q 79 346 50 388 q 22 430 22 448 q 22 488 62 488 l 84 488 q 164 488 183 458 q 189 448 192 410 q 195 373 214 316 q 267 158 275 158 q 289 158 338 317 q 359 381 365 420 q 370 459 375 467 q 388 487 456 487 q 500 487 500 458 z"},"O":{"x_min":0,"x_max":735,"ha":735,"o":"m 357 78 l 376 78 q 405 78 432 99 q 518 166 518 344 q 518 466 475 541 q 433 616 368 616 l 361 616 q 331 616 302 595 q 273 575 252 538 q 212 466 212 358 l 212 341 q 212 168 299 100 q 327 78 357 78 z m 657 377 l 657 342 q 657 279 635 209 q 614 139 573 88 q 532 37 478 12 q 424 -14 366 -14 l 355 -14 q 231 -14 152 84 q 117 127 97 193 q 77 258 77 328 l 77 339 l 77 351 q 77 425 101 491 q 150 629 253 680 q 309 707 373 707 q 438 707 488 683 q 587 636 630 519 q 657 447 657 377 z"},"(":{"x_min":0,"x_max":375,"ha":375,"o":"m 324 -138 q 324 -161 294 -161 q 264 -161 218 -112 q 130 -18 91 139 q 73 209 73 271 l 73 317 q 73 381 92 456 q 131 607 226 708 q 265 750 295 750 q 325 750 325 728 q 325 715 282 647 q 240 580 220 518 q 189 419 189 294 q 189 95 270 -40 q 324 -131 324 -138 z"},"C":{"x_min":0,"x_max":648,"ha":648,"o":"m 371 0 l 355 0 q 354 0 353 0 q 279 0 222 27 q 110 80 69 206 q 50 263 50 338 q 50 339 50 341 q 50 415 72 478 q 118 609 227 660 q 289 689 358 689 l 373 689 q 493 689 541 669 q 558 661 576 634 q 595 607 595 582 q 595 525 555 525 q 546 525 517 544 q 488 562 472 571 q 417 600 371 600 q 287 600 237 528 q 187 457 187 344 q 187 230 238 162 q 290 94 375 94 q 417 94 485 125 q 554 156 565 156 q 576 156 589 146 q 601 135 601 120 q 601 104 589 86 q 568 55 531 37 q 459 0 371 0 z"},"W":{"x_min":0,"x_max":918,"ha":918,"o":"m 838 670 q 854 670 864 658 q 874 646 874 621 l 874 606 q 874 595 853 541 q 832 487 783 309 q 734 131 720 97 q 706 62 685 47 q 665 31 644 31 q 623 31 606 49 q 569 90 518 267 q 486 375 470 413 l 462 430 q 450 430 406 286 q 363 142 343 95 q 315 30 281 30 q 254 30 231 48 q 208 66 199 89 q 190 113 170 185 q 151 257 140 293 q 130 330 111 401 q 92 473 69 537 q 46 601 46 621 q 46 641 56 659 q 66 678 91 678 q 142 678 167 662 q 181 654 190 634 q 199 615 208 557 q 217 500 234 435 q 285 237 295 237 q 318 237 377 518 q 397 616 404 628 q 423 664 470 664 q 517 664 538 616 q 551 585 566 521 q 582 456 594 413 q 641 245 655 245 q 669 245 737 539 q 758 628 762 636 q 780 670 838 670 z"},"A":{"x_min":0,"x_max":673,"ha":673,"o":"m 332 270 q 382 270 382 275 l 382 280 q 382 286 370 321 l 366 335 q 355 377 351 399 q 347 420 342 440 q 336 460 328 497 q 319 534 318 534 q 317 534 312 511 q 308 489 282 394 l 274 365 q 271 348 259 312 q 247 276 247 275 q 247 267 263 267 l 265 267 l 268 267 l 271 267 l 301 270 z m 453 29 q 452 31 443 92 q 435 153 416 173 q 396 192 313 192 q 230 192 215 174 q 200 156 188 96 q 176 36 172 30 q 162 13 128 13 q 94 13 77 26 q 50 46 50 78 q 50 110 69 139 q 87 168 99 197 q 111 226 156 349 q 201 472 229 554 q 257 637 263 648 q 286 692 335 692 q 387 692 406 647 q 416 624 492 403 q 569 183 592 146 q 616 109 616 87 q 616 43 584 23 q 565 11 515 11 q 466 11 453 29 z"},"f":{"x_min":0,"x_max":372,"ha":372,"o":"m 250 45 q 250 18 233 9 q 216 0 165 0 l 143 0 q 118 0 100 20 q 81 40 81 61 q 81 81 89 109 q 97 136 101 160 q 104 183 104 253 q 104 323 96 351 q 88 380 69 398 q 51 416 51 434 l 51 442 q 51 459 73 483 q 95 507 102 531 q 136 640 158 665 q 180 689 215 703 q 249 716 283 716 l 294 716 q 338 716 369 699 q 389 688 389 666 q 389 644 376 631 q 362 619 343 619 l 287 629 q 258 629 243 610 q 229 590 229 558 q 229 525 242 508 q 255 491 284 470 q 312 450 312 430 q 312 409 283 394 q 253 379 242 352 q 232 325 232 237 q 232 149 235 129 q 238 108 244 81 q 250 53 250 45 z"},"Q":{"x_min":0,"x_max":733,"ha":733,"o":"m 348 89 l 356 89 q 370 89 387 108 q 466 194 482 222 q 509 269 509 343 l 509 376 q 509 471 472 541 q 454 575 427 595 q 400 616 371 616 l 358 616 q 335 616 308 601 q 280 585 259 554 q 210 478 210 369 l 210 334 q 210 240 248 168 q 266 133 295 111 q 324 89 348 89 z m 544 39 q 544 10 609 -26 q 675 -62 675 -81 l 675 -86 q 675 -108 632 -108 l 609 -108 q 519 -108 401 -59 q 283 -10 218 49 q 152 109 116 192 q 79 275 79 367 l 79 396 q 79 452 99 513 q 138 637 243 684 q 289 704 351 704 q 413 704 468 677 q 524 650 564 598 q 604 547 622 485 q 639 424 639 343 q 639 216 579 105 q 544 43 544 39 z"},"w":{"x_min":0,"x_max":759,"ha":759,"o":"m 682 486 q 729 485 729 446 q 729 415 708 376 q 687 338 669 285 q 651 231 645 213 l 639 194 q 636 185 627 157 l 597 68 q 586 43 567 28 q 548 13 530 13 q 497 13 473 53 q 462 72 423 184 q 384 295 378 295 q 372 295 339 195 q 306 95 288 59 q 264 12 235 12 q 190 12 164 62 q 156 76 122 187 q 88 298 75 328 q 31 430 31 448 q 31 487 93 487 q 155 487 175 444 q 183 428 188 390 q 193 352 202 316 q 234 187 250 187 q 268 187 294 292 q 322 432 331 448 q 348 478 400 478 q 435 478 452 444 q 458 431 490 308 q 521 184 539 184 q 553 184 588 318 q 595 344 605 398 q 615 453 620 460 q 635 486 682 486 z"},"-":{"x_min":0,"x_max":373,"ha":373,"o":"m 64 221 q 43 221 43 244 l 43 269 l 43 272 q 43 312 62 316 q 80 320 191 320 l 258 321 l 304 321 q 328 321 328 304 l 328 281 q 328 237 314 231 q 301 225 178 225 l 144 223 l 136 223 l 94 221 l 87 221 l 76 221 z"},"E":{"x_min":0,"x_max":592,"ha":592,"o":"m 447 350 q 447 278 407 278 q 385 278 354 288 q 324 298 292 298 q 261 298 246 286 q 230 275 230 235 q 230 150 256 111 q 269 91 334 91 q 400 91 451 104 q 501 118 513 118 q 545 118 545 86 q 545 32 505 16 q 473 3 367 3 l 310 3 q 178 3 115 20 q 73 31 73 65 q 73 80 86 108 q 98 136 105 186 q 111 237 111 361 q 111 486 106 524 q 100 562 86 596 q 73 629 73 642 q 73 665 110 673 q 183 688 304 688 l 361 688 l 380 688 q 481 688 500 677 q 530 660 530 621 q 530 582 499 582 q 495 582 462 587 l 419 595 q 375 602 322 602 q 269 602 253 573 q 232 535 232 465 q 232 436 245 428 q 257 419 289 419 q 321 419 350 430 q 378 440 387 440 q 422 440 438 417 q 447 401 447 350 z"},"s":{"x_min":0,"x_max":457,"ha":457,"o":"m 237 -4 l 225 -4 q 116 -4 79 18 q 42 41 42 85 q 42 129 75 129 q 96 129 142 99 q 188 68 225 68 q 261 68 281 84 q 301 100 301 126 q 301 152 265 174 q 258 179 190 208 q 123 238 97 262 q 53 303 53 360 q 53 417 98 456 q 143 496 208 496 l 233 496 q 326 496 360 479 q 395 462 395 419 q 395 376 359 376 q 342 376 302 400 q 261 423 230 423 q 200 423 181 410 q 163 397 163 375 q 163 352 192 333 q 203 327 274 295 q 345 264 371 240 q 414 199 414 137 q 414 76 364 36 q 315 -4 237 -4 z"},">":{"x_min":0,"x_max":583,"ha":583,"o":"m 94 39 l 88 39 q 77 39 77 76 q 77 114 108 135 q 138 156 266 220 q 394 285 394 288 q 394 293 263 360 q 132 428 119 436 q 77 464 77 511 l 77 520 q 77 541 88 541 q 103 541 310 428 q 334 415 399 383 q 463 351 489 335 q 515 319 515 286 q 515 253 483 235 q 371 171 235 105 q 99 39 94 39 z"},"l":{"x_min":0,"x_max":308,"ha":308,"o":"m 254 54 l 254 46 q 254 17 233 5 q 221 -2 187 -2 l 143 -2 q 104 -2 87 10 q 71 21 71 53 l 81 119 q 82 132 83 152 q 84 172 84 178 l 86 206 q 88 236 88 384 q 88 531 86 562 q 83 594 76 620 l 66 648 q 59 668 59 676 l 59 684 q 59 702 81 709 q 103 717 172 717 q 203 717 207 684 q 208 676 208 563 l 208 408 l 208 388 l 208 369 l 209 340 q 211 301 211 265 q 211 229 221 177 q 230 126 242 93 q 254 60 254 54 z"},"8":{"x_min":0,"x_max":568,"ha":568,"o":"m 285 69 l 299 69 q 332 69 357 98 q 383 127 383 171 l 383 174 q 383 221 353 254 q 307 305 263 305 l 259 305 q 236 305 207 258 q 189 231 189 190 l 189 187 q 189 138 217 104 q 245 69 285 69 z m 370 504 l 370 514 q 370 556 346 583 q 323 609 292 609 l 277 609 q 250 609 229 584 q 207 560 207 526 l 207 514 q 207 478 238 443 q 269 407 306 407 l 308 408 q 328 408 349 439 q 370 471 370 504 z m 500 205 l 500 183 q 500 143 479 104 q 418 -14 274 -14 q 274 -14 273 -14 q 187 -14 129 34 q 71 83 71 166 q 71 217 89 250 q 106 284 140 318 q 174 352 174 354 q 174 356 160 368 q 146 379 133 391 q 121 403 106 431 q 91 459 91 500 q 91 581 149 637 q 174 662 212 677 q 249 692 290 692 l 312 692 q 381 692 431 648 q 481 603 481 530 q 481 458 422 396 q 396 370 396 368 q 396 366 415 352 q 433 338 448 325 q 464 312 482 279 q 500 247 500 205 z"},"\\":{"x_min":0,"x_max":426,"ha":426,"o":"m 405 -50 l 405 -57 q 405 -67 363 -67 l 355 -67 q 328 -67 310 -23 q 201 237 45 670 q 25 724 25 729 l 25 735 q 25 744 63 744 q 101 744 114 716 q 134 674 207 477 q 280 279 343 118 q 405 -43 405 -50 z"},"e":{"x_min":0,"x_max":516,"ha":516,"o":"m 188 307 l 205 307 l 207 308 l 252 311 q 345 311 345 335 l 345 340 q 343 350 343 355 q 343 379 320 396 q 296 413 277 413 l 261 413 q 231 413 202 383 q 173 354 173 324 l 173 317 q 173 307 188 307 z m 288 86 q 312 86 362 106 q 412 126 429 126 q 463 126 463 100 q 463 58 406 28 q 350 -1 284 -1 l 261 -1 q 220 -1 179 14 q 96 46 63 130 q 46 175 46 217 l 46 229 q 46 333 109 408 q 144 449 193 471 q 242 493 291 493 l 301 493 q 369 493 415 447 q 461 401 461 324 q 461 276 432 261 q 415 251 320 242 q 226 234 209 229 q 168 217 168 180 q 168 144 201 115 q 234 86 288 86 z"},"b":{"x_min":0,"x_max":566,"ha":566,"o":"m 381 236 l 381 257 q 381 313 359 361 q 337 408 300 408 l 293 408 l 290 407 q 258 407 237 377 q 215 346 215 297 q 214 283 214 278 l 213 249 l 213 225 l 213 220 l 214 206 l 214 196 q 215 188 215 183 q 215 133 234 103 q 253 73 288 73 l 291 73 q 330 73 356 121 q 381 169 381 236 z m 506 234 l 506 221 q 506 117 452 56 q 398 -5 327 -5 q 297 -5 260 8 q 223 21 204 21 l 197 20 l 183 15 q 167 11 158 11 q 110 11 99 42 q 95 51 95 140 q 95 229 89 375 q 83 522 79 558 q 76 594 66 626 q 57 657 57 677 q 57 696 76 708 q 96 721 154 721 q 187 721 193 699 q 197 687 197 592 q 197 498 199 491 q 203 472 237 472 q 238 472 269 478 q 300 484 317 484 q 401 484 453 414 q 506 343 506 234 z"},"%":{"x_min":0,"x_max":825,"ha":825,"o":"m 685 152 l 685 175 l 685 179 l 685 185 q 684 192 684 195 q 684 230 667 253 q 650 275 637 275 l 627 275 q 613 275 596 252 q 579 229 579 196 l 578 190 l 577 164 l 577 157 l 577 154 l 577 144 q 579 129 579 128 q 579 100 595 75 q 611 50 628 50 l 633 50 l 635 51 q 657 51 671 83 q 685 114 685 152 z m 270 500 l 270 523 l 269 533 l 268 545 q 268 577 251 599 q 234 622 220 622 l 211 622 q 197 622 181 599 q 164 577 164 542 q 163 537 163 533 l 162 520 l 162 497 l 163 494 l 163 487 q 164 481 164 478 q 164 448 179 423 q 195 398 212 398 l 217 398 q 237 398 253 427 q 270 456 270 500 z m 770 176 l 770 165 q 770 88 728 38 q 687 -13 627 -13 l 622 -13 l 617 -12 q 564 -12 525 33 q 486 78 486 147 l 486 176 q 486 247 527 297 q 568 348 628 348 l 639 348 q 691 348 730 302 q 770 257 770 176 z m 660 673 q 660 668 646 644 q 475 340 284 40 q 251 -11 216 -11 q 181 -11 181 2 q 181 5 195 31 q 303 233 558 635 q 590 687 626 687 l 634 687 q 660 687 660 679 z m 357 528 l 357 516 q 357 445 321 390 q 305 364 277 348 q 250 332 223 332 l 203 332 q 151 332 111 381 q 72 430 72 498 l 72 526 q 72 595 116 649 q 151 693 208 693 l 219 693 q 278 693 318 647 q 357 602 357 528 z"},"m":{"x_min":0,"x_max":839,"ha":839,"o":"m 784 74 q 784 4 703 4 q 667 4 657 15 q 647 26 647 52 l 648 84 l 647 104 q 646 128 646 141 l 645 201 l 646 264 q 646 386 582 386 q 534 386 517 346 q 497 299 497 154 l 505 83 q 505 43 476 32 q 458 25 407 25 q 356 25 345 36 q 334 47 334 60 q 334 72 338 108 q 343 144 343 174 q 343 307 326 356 q 314 392 282 392 q 238 392 212 341 q 196 311 196 197 l 199 67 q 199 31 183 17 q 167 3 143 3 q 58 3 58 63 q 58 86 66 112 q 74 137 77 150 q 79 164 79 216 q 79 269 79 290 l 78 331 q 78 351 78 371 l 77 407 q 77 448 83 457 q 93 473 127 473 q 173 473 210 445 q 225 435 233 435 q 241 435 275 448 q 310 460 347 460 q 385 460 430 438 q 475 416 479 416 q 482 416 509 434 q 535 452 540 454 q 585 481 624 481 q 664 481 694 462 q 724 442 743 402 q 763 361 763 226 q 763 171 773 125 q 784 78 784 74 z"},"#":{"x_min":0,"x_max":584,"ha":584,"o":"m 355 408 q 355 415 336 415 l 326 416 l 310 416 l 308 415 l 294 414 l 275 411 q 251 411 251 383 q 251 367 239 328 q 228 289 228 276 l 228 275 l 228 273 q 228 270 237 270 l 248 270 l 250 271 l 261 271 l 273 272 q 285 275 290 275 l 307 277 q 310 277 312 277 q 335 277 335 318 q 335 318 336 326 l 342 355 q 342 363 348 383 q 355 402 355 406 z m 419 303 q 419 286 445 281 q 484 273 487 272 q 501 264 501 240 q 501 216 484 205 q 479 201 447 196 q 414 191 402 179 q 391 167 378 102 q 366 37 362 30 q 352 9 312 9 q 287 9 287 27 q 287 39 298 100 q 309 160 309 168 q 309 188 248 188 q 220 188 214 172 q 213 170 202 109 q 191 47 183 30 q 171 5 140 5 q 108 5 108 35 l 118 83 q 126 128 126 147 q 126 165 122 173 q 118 182 87 192 q 56 202 56 220 q 56 248 67 259 q 77 271 112 276 q 147 281 155 294 q 169 318 169 354 q 169 390 165 395 q 160 401 133 406 q 105 412 101 415 q 88 423 88 448 q 88 473 100 480 q 112 486 143 492 q 173 498 185 509 q 196 520 210 585 q 224 651 227 656 q 239 672 279 672 q 300 672 300 650 q 300 638 290 582 q 280 527 280 522 q 280 498 336 498 q 366 498 373 510 q 373 510 385 573 q 397 636 404 648 q 416 669 447 669 q 479 669 479 651 q 479 646 471 603 q 462 561 462 539 q 462 517 470 509 q 478 501 504 491 q 529 481 529 466 l 529 454 q 529 434 510 421 q 502 417 471 410 q 441 404 430 388 q 419 372 419 303 z"},",":{"x_min":0,"x_max":292,"ha":292,"o":"m 84 81 q 84 146 153 146 l 157 146 q 196 146 208 129 q 220 112 220 77 l 220 64 q 220 -8 190 -58 q 160 -108 123 -135 q 102 -150 86 -150 l 83 -150 q 63 -150 63 -130 l 63 -125 q 63 -119 77 -103 q 91 -86 105 -65 q 119 -43 119 -16 q 119 -8 110 1 q 101 10 93 26 q 84 42 84 81 z"},"n":{"x_min":0,"x_max":581,"ha":581,"o":"m 213 65 q 213 10 116 10 l 103 10 q 70 10 61 20 q 51 29 51 51 q 51 74 61 100 q 80 146 80 297 q 80 355 73 393 q 65 431 65 440 q 65 462 86 469 q 107 476 146 476 q 186 476 201 462 l 207 455 q 219 437 229 437 q 239 437 259 448 q 279 459 305 469 q 330 479 368 479 q 407 479 439 458 q 472 438 487 396 q 495 373 500 287 q 504 201 510 169 q 515 137 524 112 q 534 86 534 63 q 534 40 517 28 q 500 17 431 17 q 403 17 391 27 q 378 38 378 69 l 380 80 q 382 94 382 156 q 382 296 363 348 q 344 401 297 401 q 270 401 249 386 q 228 372 218 350 q 200 307 200 188 q 200 162 206 114 q 213 66 213 65 z"},"h":{"x_min":0,"x_max":580,"ha":580,"o":"m 67 668 q 67 702 138 702 l 153 702 q 192 702 201 683 q 210 664 210 582 q 210 500 214 486 q 217 473 230 473 q 242 473 280 484 q 318 495 349 495 q 379 495 412 476 q 445 458 466 421 q 488 385 488 268 q 488 151 498 108 q 499 103 505 84 q 511 65 511 55 q 511 25 496 13 q 481 2 440 2 q 399 2 380 12 q 360 23 360 51 q 360 55 362 70 q 363 84 364 108 q 365 132 367 191 q 370 250 370 300 q 370 350 356 370 q 343 391 316 391 q 289 391 265 375 q 242 359 228 326 q 215 293 215 184 q 215 146 223 96 q 232 47 232 38 q 232 29 216 15 q 201 0 173 0 l 158 0 q 105 0 89 10 q 74 20 74 43 q 74 44 81 82 q 94 150 94 254 q 94 357 90 416 q 85 474 85 498 l 84 556 q 84 602 75 632 q 67 663 67 668 z"},"z":{"x_min":0,"x_max":493,"ha":493,"o":"m 392 1 l 379 1 l 368 2 l 343 2 l 331 3 l 212 3 q 86 3 70 5 q 41 10 41 28 l 41 39 q 41 73 159 227 q 277 381 277 397 q 276 413 230 413 q 185 413 139 397 q 93 382 77 382 q 61 382 55 395 q 49 407 49 432 q 49 434 49 436 q 49 493 99 493 l 100 493 l 111 493 l 148 491 q 185 490 199 490 l 291 490 q 408 490 419 487 q 439 481 439 455 q 439 429 419 396 q 399 362 304 238 q 208 114 208 98 q 208 82 250 82 q 292 82 320 88 q 347 95 376 104 q 405 112 423 112 q 455 112 455 75 l 455 62 q 455 34 444 22 q 426 1 392 1 z"},"B":{"x_min":0,"x_max":640,"ha":640,"o":"m 300 88 l 315 88 q 373 88 406 118 q 438 147 438 199 q 438 250 403 283 q 367 315 302 315 l 286 315 q 254 315 245 308 q 236 301 236 274 l 236 208 q 236 116 244 102 q 253 88 300 88 z m 412 500 l 412 518 q 412 551 385 578 q 358 605 307 605 l 289 605 l 286 605 l 279 605 q 272 604 269 604 q 239 604 239 576 l 238 572 l 238 569 l 237 550 l 237 540 l 236 529 l 236 481 l 236 471 l 236 447 q 236 420 242 412 q 249 403 270 403 l 294 403 q 352 403 382 433 q 412 463 412 500 z m 566 202 l 566 190 q 566 105 502 52 q 438 -1 321 -1 l 298 -2 l 230 -2 l 219 -1 q 132 -1 111 3 q 84 10 84 32 q 84 45 94 70 q 104 95 108 113 q 112 130 112 177 q 112 225 109 286 l 107 347 l 105 370 l 107 406 q 108 442 108 442 l 109 466 l 110 502 q 110 555 106 576 q 102 598 93 624 q 84 650 84 663 q 84 676 102 683 q 119 690 171 690 l 182 691 q 193 691 204 691 l 215 692 q 226 692 237 692 l 293 693 q 364 693 404 684 q 489 662 521 592 q 535 562 535 521 q 535 479 516 448 q 498 417 471 394 q 443 370 443 368 q 443 365 461 356 q 479 347 496 335 q 514 323 531 302 q 566 257 566 202 z"},"K":{"x_min":0,"x_max":673,"ha":673,"o":"m 111 171 l 104 453 l 105 532 q 105 559 96 592 q 86 625 86 626 l 86 642 q 86 692 173 692 l 192 692 q 238 692 253 682 q 268 672 268 656 q 268 640 261 614 q 240 544 240 460 q 240 418 254 418 q 282 418 368 534 q 417 598 426 632 q 436 665 445 673 q 463 690 501 690 q 578 690 578 667 q 578 653 479 537 q 380 421 380 390 q 380 373 498 197 q 542 131 581 85 q 620 39 620 27 l 620 17 q 620 0 552 0 q 485 0 458 20 q 453 24 414 99 q 322 277 275 277 q 268 277 257 258 q 246 238 246 196 q 246 154 255 108 q 265 62 265 54 q 265 0 177 0 q 130 0 110 9 q 90 18 90 42 q 90 47 101 92 q 111 136 111 171 z"},"R":{"x_min":0,"x_max":656,"ha":656,"o":"m 414 482 l 414 502 q 414 543 386 573 q 359 603 322 603 q 315 604 312 604 l 294 605 q 253 605 245 589 q 237 574 237 523 l 237 452 l 237 437 l 237 411 q 237 388 244 379 q 251 371 270 371 l 288 371 q 343 371 378 403 q 414 435 414 482 z m 91 666 q 91 684 115 689 q 131 693 224 693 l 266 694 l 294 694 q 415 694 471 651 q 540 598 540 496 q 540 415 468 354 q 438 328 438 306 q 438 285 510 162 q 535 119 567 84 q 599 49 599 27 q 599 4 536 4 q 474 4 448 34 q 433 51 394 132 q 354 212 343 228 q 313 270 291 270 q 269 270 258 249 q 246 228 246 187 q 246 146 259 104 q 271 62 271 55 q 271 2 205 2 l 191 2 q 141 2 119 10 q 86 21 86 57 l 86 70 q 86 79 95 102 q 104 125 107 144 q 110 163 110 247 l 115 463 q 115 580 103 625 l 96 647 q 91 660 91 666 z"},"T":{"x_min":0,"x_max":607,"ha":607,"o":"m 420 586 q 383 586 374 545 q 367 514 367 374 q 367 234 370 183 q 374 131 387 92 q 400 54 400 41 q 400 14 372 3 q 360 -1 310 -1 l 297 -1 l 284 -1 q 238 -1 226 6 q 205 18 205 51 q 205 62 216 89 q 227 116 232 140 q 237 164 237 221 l 238 250 l 238 364 q 238 515 232 544 q 224 584 186 584 q 161 584 125 569 q 89 553 76 553 q 49 553 49 598 q 49 675 85 687 q 98 691 312 691 l 403 692 l 454 692 q 522 692 534 685 q 560 667 560 622 q 560 577 553 565 q 546 554 531 554 q 516 554 481 570 q 446 586 420 586 z"},"P":{"x_min":0,"x_max":604,"ha":604,"o":"m 407 473 l 407 495 q 407 544 376 575 q 346 605 297 605 l 287 605 q 252 605 246 590 q 241 574 241 474 l 240 461 l 240 425 l 240 414 l 240 386 q 240 353 277 353 l 295 353 q 344 353 376 388 q 407 422 407 473 z m 91 652 q 91 670 120 677 q 174 690 302 690 l 323 691 l 345 691 q 345 691 347 691 q 482 691 528 593 q 545 558 545 523 l 545 499 q 545 415 476 348 q 440 313 384 295 q 364 288 329 280 q 269 267 245 230 q 230 208 230 182 q 230 156 242 120 q 254 84 254 72 q 254 34 224 14 q 206 1 159 1 l 127 1 q 69 1 69 38 l 69 48 q 69 62 83 103 q 96 145 96 198 l 96 209 q 97 221 97 233 l 97 245 l 97 269 l 104 451 l 105 485 l 106 529 q 106 574 104 586 q 103 599 97 618 q 91 637 91 652 z"},"|":{"x_min":0,"x_max":351,"ha":351,"o":"m 156 746 l 184 746 q 210 746 216 738 q 221 730 221 702 l 221 395 l 220 384 l 220 76 l 221 35 l 221 -149 q 221 -184 195 -184 l 167 -184 q 134 -184 131 -160 q 130 -150 130 116 l 130 660 l 130 701 q 130 731 135 738 q 139 746 156 746 z"},"t":{"x_min":0,"x_max":386,"ha":386,"o":"m 244 -1 l 234 -1 q 152 -1 124 62 q 105 103 105 228 q 105 354 97 376 q 88 398 68 409 q 37 426 37 445 l 37 454 q 37 473 58 481 q 89 494 95 504 q 101 514 111 555 q 122 596 135 611 q 149 626 173 626 l 181 626 q 205 626 216 606 q 218 602 227 568 q 236 534 250 518 q 263 503 298 493 q 333 483 333 457 q 333 435 314 421 q 309 417 280 408 q 250 399 240 380 q 225 352 225 250 q 225 149 239 125 q 254 101 290 94 q 325 88 334 80 q 343 71 343 51 q 343 30 324 19 q 290 -1 244 -1 z"},"M":{"x_min":0,"x_max":864,"ha":864,"o":"m 775 645 q 775 631 768 589 q 762 547 762 427 q 762 306 770 237 q 778 168 791 117 q 805 65 805 56 q 805 47 786 31 q 768 15 729 15 q 691 15 664 31 q 637 46 637 76 l 638 95 l 643 138 q 645 175 645 239 q 645 475 625 475 q 616 475 543 286 q 471 97 464 86 q 442 51 413 51 q 383 51 364 91 q 357 107 288 288 q 220 470 208 470 q 189 470 189 207 q 189 182 189 157 l 190 111 l 191 90 q 191 55 176 37 q 161 20 124 20 q 86 20 71 36 q 57 53 57 68 q 57 83 69 119 q 82 155 86 188 q 99 280 99 483 q 99 527 96 560 l 87 627 q 87 651 94 660 q 109 679 150 679 q 192 679 226 659 q 259 640 278 609 q 296 579 379 369 l 418 269 l 429 253 q 439 253 505 419 q 572 586 593 616 q 635 678 705 678 q 775 678 775 645 z"},"g":{"x_min":0,"x_max":562,"ha":562,"o":"m 260 118 l 273 118 q 312 118 334 162 q 356 207 356 263 l 356 292 q 356 354 336 388 q 315 422 281 422 l 274 422 l 271 421 q 234 421 210 376 q 186 332 186 278 l 186 249 q 186 200 206 159 q 227 118 260 118 z m 479 454 q 479 419 470 355 q 462 292 462 225 q 462 159 468 102 q 474 45 474 2 q 474 -83 414 -138 q 353 -193 261 -193 q 190 -193 128 -163 q 82 -140 82 -104 q 82 -92 95 -81 q 107 -70 125 -70 q 142 -70 187 -85 q 232 -101 275 -101 q 318 -101 346 -67 q 374 -33 374 33 q 374 43 367 43 q 360 43 352 39 l 343 34 q 332 28 313 20 q 295 13 257 13 q 177 13 126 80 q 100 114 85 169 q 69 225 69 279 l 69 294 q 69 343 85 389 q 100 436 122 462 q 168 519 254 519 q 281 519 320 504 q 359 489 363 489 q 366 489 380 500 q 393 510 419 510 q 444 510 462 499 q 479 488 479 467 z"},"j":{"x_min":0,"x_max":304,"ha":304,"o":"m 224 286 l 224 132 q 224 1 217 -44 q 209 -89 190 -122 q 171 -155 133 -177 q 94 -199 56 -199 l 39 -199 q -21 -199 -21 -158 q -21 -134 2 -116 q 12 -108 44 -101 q 76 -94 89 -68 q 103 -42 103 120 q 103 282 99 317 q 95 352 82 394 q 69 437 69 455 q 69 474 87 480 q 115 490 170 490 l 179 490 q 209 490 218 453 q 224 427 224 286 z m 152 571 q 88 571 88 628 l 88 645 l 90 658 q 90 679 109 691 q 128 703 157 703 l 169 703 q 177 702 189 702 q 201 702 216 691 q 231 680 231 658 q 233 650 233 647 l 233 631 l 231 617 q 231 600 216 587 q 201 574 182 574 q 174 572 172 572 l 159 571 z"},"i":{"x_min":0,"x_max":298,"ha":298,"o":"m 209 234 l 210 175 q 210 149 224 104 q 238 58 238 43 q 238 29 224 14 q 211 0 188 0 l 111 0 q 81 0 70 11 q 59 22 59 40 q 59 59 70 87 q 82 116 85 145 q 88 174 88 255 q 88 336 86 360 q 83 383 71 413 q 58 443 58 452 l 58 458 q 58 476 78 483 q 98 489 150 489 l 163 490 l 182 491 q 201 491 207 469 q 209 462 209 367 z m 219 633 l 218 622 q 218 599 200 586 q 183 574 154 574 l 139 574 q 75 574 75 630 l 75 639 q 75 674 93 687 q 112 701 141 701 l 158 701 q 185 701 202 688 q 220 676 220 642 l 220 635 z"},"y":{"x_min":0,"x_max":527,"ha":527,"o":"m 280 188 q 292 188 335 327 q 347 366 357 421 q 367 476 367 476 q 376 493 429 493 q 482 493 482 465 l 482 455 q 482 451 438 354 q 434 345 358 140 q 283 -64 272 -86 q 218 -194 148 -194 l 136 -194 q 102 -194 84 -180 q 65 -167 65 -147 q 65 -128 90 -110 q 97 -105 125 -95 q 154 -85 170 -66 q 203 -27 203 29 q 203 63 129 252 q 104 316 75 377 q 47 438 47 458 q 47 478 64 485 q 82 493 122 493 q 161 493 180 483 q 198 473 204 458 q 209 444 212 411 q 214 378 244 283 q 273 188 280 188 z"},"@":{"x_min":0,"x_max":806,"ha":806,"o":"m 368 162 l 376 162 q 412 162 447 220 q 482 277 482 324 l 486 361 l 486 364 q 486 414 456 414 l 447 414 q 410 414 372 362 q 334 310 334 248 l 334 233 l 336 213 q 336 191 347 177 q 358 162 368 162 z m 672 571 q 751 491 751 381 q 751 272 699 200 q 647 128 563 128 q 542 128 522 138 l 506 148 l 492 156 q 474 156 438 140 q 401 125 371 125 q 322 125 292 158 q 261 192 261 242 q 261 291 279 333 q 313 414 391 425 q 469 437 525 437 q 542 437 551 424 q 561 412 561 374 l 560 353 l 557 330 q 553 285 553 255 q 553 224 568 212 l 582 207 q 615 207 646 253 q 677 299 677 374 q 677 412 659 458 q 641 503 608 532 q 575 562 535 577 q 496 592 438 592 q 380 592 328 569 q 213 519 169 396 q 149 340 149 275 q 149 274 149 272 q 149 209 171 156 q 215 48 315 9 q 368 -11 423 -11 q 478 -11 505 -4 q 532 2 561 13 q 590 24 606 24 q 622 24 622 11 q 622 -14 547 -38 q 472 -62 408 -62 l 381 -62 q 319 -62 256 -34 q 128 24 83 162 q 66 216 66 289 q 66 361 94 430 q 123 499 172 549 q 280 660 447 660 q 583 660 672 571 z"},".":{"x_min":0,"x_max":290,"ha":290,"o":"m 144 -5 q 109 -5 90 10 q 71 24 71 60 l 71 75 q 71 104 86 122 q 101 140 127 140 l 135 141 l 145 142 l 150 142 q 187 142 204 125 q 220 108 220 74 l 220 56 q 220 -3 167 -3 l 164 -4 l 162 -4 l 151 -5 z"},"p":{"x_min":0,"x_max":571,"ha":571,"o":"m 385 239 l 385 271 q 384 280 384 286 q 384 334 356 380 q 335 414 305 414 l 294 414 q 261 414 236 375 q 219 349 219 302 l 218 297 l 218 293 l 216 260 l 216 218 q 216 87 291 87 l 298 87 q 337 87 361 135 q 385 183 385 239 z m 79 456 q 79 492 157 492 q 186 492 204 479 q 223 466 227 466 q 231 466 267 484 q 302 502 331 502 l 341 502 q 459 502 497 381 q 511 335 511 273 q 511 156 441 78 q 384 13 292 13 q 248 13 219 -7 q 204 -18 204 -37 q 204 -56 218 -93 q 232 -129 232 -142 q 232 -193 166 -193 l 155 -193 q 96 -193 78 -183 q 61 -173 61 -150 q 61 -126 68 -106 q 74 -85 78 -68 q 82 -50 89 31 q 96 112 96 184 l 98 233 l 98 257 l 98 281 q 98 382 89 416 q 79 451 79 456 z"},"X":{"x_min":0,"x_max":662,"ha":662,"o":"m 518 -1 l 500 -1 q 433 -1 416 23 q 408 35 404 65 q 401 95 391 117 q 332 248 314 248 l 305 242 q 273 208 234 119 q 220 85 217 57 q 214 28 212 22 q 202 -1 165 -1 l 111 -1 q 58 -1 58 21 q 58 23 156 172 q 255 321 255 338 q 255 354 193 455 q 131 556 100 600 q 68 643 68 653 q 68 676 81 685 q 94 693 163 693 l 197 693 q 247 693 263 664 q 267 656 269 630 q 271 603 286 569 q 332 467 345 467 q 361 467 408 560 q 428 599 437 638 q 446 678 450 682 q 462 693 509 693 l 526 692 l 544 692 q 588 692 588 665 q 588 653 531 576 q 473 498 430 423 q 411 391 411 361 q 411 354 508 196 q 605 38 605 31 q 605 11 588 5 q 571 -1 518 -1 z"},"*":{"x_min":0,"x_max":466,"ha":466,"o":"m 242 693 l 251 693 q 278 693 278 663 q 278 646 273 622 q 268 597 268 591 q 268 585 274 585 q 276 585 307 600 q 338 615 350 615 q 388 615 388 588 q 388 545 354 532 q 320 518 320 497 q 320 496 335 475 q 349 454 349 426 q 349 405 298 405 q 286 405 273 396 q 260 386 257 386 l 253 386 q 250 386 241 390 q 232 393 224 393 q 207 387 202 387 q 198 387 182 395 q 174 403 168 403 l 155 402 l 142 402 q 120 402 115 407 q 110 412 110 433 q 110 454 126 469 q 141 485 141 500 q 141 507 111 526 q 81 545 81 582 q 81 612 116 612 q 128 612 161 596 q 194 581 199 581 q 205 581 205 588 l 196 660 q 196 680 207 687 q 218 693 242 693 z"},"Y":{"x_min":0,"x_max":638,"ha":638,"o":"m 589 667 l 589 658 q 589 636 560 602 q 509 543 422 362 q 387 289 387 228 q 387 167 391 142 q 396 117 406 91 q 416 65 416 45 q 416 25 398 12 q 380 -1 353 -1 l 286 -1 q 221 -1 221 42 q 221 54 229 76 l 232 87 l 237 98 q 254 150 254 229 q 254 273 229 327 q 204 380 155 470 q 106 559 79 599 q 52 638 52 656 q 52 673 67 683 q 82 693 124 693 l 151 693 q 217 693 234 662 q 235 659 240 626 q 246 592 268 541 q 328 400 339 400 q 357 400 412 544 q 436 605 438 616 q 441 626 444 646 q 446 667 452 674 q 464 693 501 693 l 515 693 q 589 693 589 667 z"},"c":{"x_min":0,"x_max":490,"ha":490,"o":"m 282 -1 l 259 -1 q 258 -1 257 -1 q 216 -1 176 15 q 98 46 63 125 q 42 173 42 226 l 42 238 q 42 351 108 420 q 173 490 282 490 l 293 490 q 444 490 444 411 q 444 393 431 377 q 417 362 399 362 q 380 362 343 386 q 306 411 275 411 q 228 411 197 370 q 166 329 166 251 q 166 173 201 131 q 236 89 292 89 q 319 89 356 105 q 394 121 415 121 q 449 121 449 90 q 449 54 385 22 q 338 -1 282 -1 z"},"!":{"x_min":0,"x_max":321,"ha":321,"o":"m 148 137 l 157 137 q 179 137 199 123 q 219 109 219 78 q 220 73 220 70 l 221 60 l 221 45 l 218 22 q 218 -7 182 -7 l 169 -9 l 165 -9 q 139 -9 121 7 q 103 22 103 48 q 102 56 102 59 l 101 71 l 101 81 l 103 100 q 103 116 115 127 q 127 137 148 137 z m 164 699 l 175 699 q 207 699 217 688 q 228 676 228 643 l 228 615 l 228 609 l 226 563 q 225 557 225 551 l 224 533 q 223 521 223 515 l 213 393 q 204 277 204 271 q 204 229 192 216 q 181 203 159 203 l 154 203 q 134 203 127 218 q 114 247 114 329 l 112 359 q 109 390 109 396 l 107 419 q 105 444 105 450 l 104 468 q 103 486 103 492 l 102 504 q 101 517 101 522 l 100 535 q 99 547 99 552 l 98 564 l 97 588 l 96 594 l 95 622 l 95 644 q 95 678 111 689 q 127 699 164 699 z"},"/":{"x_min":0,"x_max":432,"ha":432,"o":"m 410 734 q 410 721 354 579 q 299 438 222 232 q 144 27 118 -33 q 101 -74 69 -74 l 60 -74 l 51 -74 q 18 -73 18 -61 q 18 -48 36 -1 q 125 228 202 430 q 278 632 309 706 q 326 747 358 747 l 368 747 l 376 747 q 410 747 410 734 z"},"[":{"x_min":0,"x_max":368,"ha":368,"o":"m 292 -156 l 222 -156 q 130 -156 112 -139 q 95 -122 95 -32 l 95 627 q 95 718 114 733 q 134 748 250 748 l 273 749 l 284 749 q 321 749 321 729 q 321 705 301 689 q 292 683 265 675 q 238 667 227 658 q 216 650 208 623 q 201 595 201 292 q 201 -11 210 -40 q 218 -69 250 -79 q 297 -93 305 -100 q 322 -115 322 -141 q 322 -156 292 -156 z"},"6":{"x_min":0,"x_max":568,"ha":568,"o":"m 285 74 l 298 74 q 333 74 355 114 q 377 154 377 210 l 376 214 q 376 272 352 311 q 328 351 289 351 l 285 351 q 250 351 226 322 q 202 292 202 248 l 201 239 l 201 209 q 201 160 226 117 q 251 74 285 74 z m 502 208 l 502 184 q 502 152 488 114 q 475 76 447 49 q 395 -5 320 -5 l 297 -5 q 248 -5 203 21 q 114 71 80 178 q 60 242 60 304 l 60 330 q 60 396 88 464 q 142 594 254 643 q 312 669 364 669 l 386 669 q 419 669 439 658 q 459 647 459 628 q 459 608 439 600 q 418 592 361 583 q 263 568 223 491 q 211 469 211 444 q 211 417 245 417 l 293 420 q 337 420 376 403 q 453 370 484 291 q 502 247 502 208 z"},"r":{"x_min":0,"x_max":417,"ha":417,"o":"m 204 204 q 204 163 217 117 q 230 72 230 52 q 230 20 204 10 q 177 0 130 0 q 83 0 71 8 q 59 17 59 37 q 59 58 68 81 q 77 104 80 131 q 83 158 83 236 q 83 313 80 341 q 78 368 70 400 q 62 432 62 440 q 62 460 80 470 q 99 479 148 479 q 197 479 208 467 q 211 464 217 450 q 223 437 228 437 q 233 437 267 460 q 301 484 329 484 l 336 484 q 364 484 377 468 q 390 452 390 427 q 390 401 374 386 q 358 371 336 371 l 287 376 q 246 376 223 330 q 204 293 204 204 z"},"2":{"x_min":0,"x_max":560,"ha":560,"o":"m 412 3 l 398 3 l 369 4 q 354 5 339 5 l 308 5 l 277 5 l 200 7 l 185 7 q 169 8 134 8 q 99 8 86 12 q 66 20 66 49 q 66 78 101 126 q 135 174 212 256 q 290 338 321 386 q 352 435 352 479 q 352 524 327 551 q 302 577 264 577 q 227 577 183 545 q 109 492 102 492 q 81 492 73 502 q 66 512 66 535 q 66 558 82 583 q 98 608 129 630 q 195 674 273 674 l 289 674 q 328 674 365 661 q 439 633 468 562 q 480 530 480 488 q 480 427 436 363 q 406 319 316 235 q 226 150 226 127 q 226 106 294 106 q 332 106 394 113 q 457 119 470 119 q 498 119 498 80 q 498 40 480 22 q 462 3 412 3 z"},"{":{"x_min":0,"x_max":391,"ha":391,"o":"m 162 298 q 162 294 173 287 q 213 264 230 230 q 246 196 246 119 l 246 106 q 244 62 244 21 q 244 -20 259 -46 q 264 -55 302 -88 q 340 -121 340 -146 q 340 -163 315 -163 l 304 -163 q 260 -163 226 -147 q 191 -131 171 -105 q 137 -62 137 34 l 142 148 q 142 199 122 227 q 112 242 82 258 q 52 274 52 291 q 52 319 78 333 q 117 355 129 378 q 142 401 142 468 l 139 519 q 137 544 137 583 q 137 704 238 740 q 273 753 318 753 q 340 753 340 742 l 340 733 q 340 710 302 677 q 263 643 258 634 q 243 608 243 542 l 246 454 q 246 391 231 365 q 215 338 203 328 q 190 317 176 309 q 162 300 162 298 z"},"9":{"x_min":0,"x_max":564,"ha":564,"o":"m 272 326 l 286 326 q 320 326 344 355 q 367 384 367 437 l 367 461 q 366 470 366 474 q 366 523 338 562 q 309 600 280 600 l 266 600 q 234 600 211 562 q 188 524 188 475 l 188 454 q 188 408 211 367 q 235 326 272 326 z m 272 254 q 233 254 193 271 q 112 306 81 386 q 64 429 64 470 l 64 482 q 64 564 113 619 q 137 647 173 664 q 208 681 250 681 l 261 681 q 364 681 433 596 q 468 553 487 491 q 506 430 506 363 l 506 351 q 506 283 482 218 q 433 82 318 30 q 252 1 196 1 l 185 1 q 98 1 98 47 q 98 64 124 74 q 139 81 195 87 q 289 99 331 162 q 354 195 354 225 q 354 255 311 255 l 292 254 z"}," ":{"x_min":0,"x_max":321,"ha":321,"o":""},"I":{"x_min":0,"x_max":352,"ha":352,"o":"m 283 43 q 283 -1 225 -1 l 132 -1 q 102 -1 85 10 q 69 21 69 40 q 69 59 85 91 q 102 124 106 153 q 110 183 110 346 q 110 509 106 540 q 102 571 85 602 q 69 633 69 650 q 69 693 129 693 l 222 693 q 283 693 283 650 q 283 634 266 603 q 250 571 245 535 q 240 498 240 346 q 240 193 243 160 q 247 126 265 92 q 283 58 283 43 z"},"H":{"x_min":0,"x_max":728,"ha":728,"o":"m 663 42 q 663 5 591 5 q 520 5 499 17 q 477 29 477 52 q 477 63 483 91 q 490 120 493 148 q 497 177 497 239 q 497 301 476 314 q 455 326 368 326 q 280 326 264 310 q 248 293 248 235 q 248 176 258 121 q 269 66 269 60 q 269 37 251 26 q 233 14 177 14 q 121 14 104 21 q 72 32 72 69 q 72 83 83 107 q 95 130 98 156 q 102 183 102 336 q 102 490 95 534 q 89 578 76 603 q 64 627 64 644 q 64 660 77 673 q 91 685 119 685 l 138 685 q 205 685 230 674 q 254 663 254 641 q 254 628 247 600 q 240 572 236 547 q 232 521 232 443 q 232 405 264 396 q 284 390 359 390 q 434 390 457 401 q 480 412 480 462 q 480 539 469 585 q 458 631 458 634 q 458 657 478 668 q 498 679 558 679 q 618 679 636 664 q 655 650 655 622 q 655 614 643 585 q 632 557 629 520 q 626 483 626 377 l 626 294 l 626 274 q 626 142 643 102 l 651 87 q 663 65 663 59 z"},"4":{"x_min":0,"x_max":574,"ha":574,"o":"m 179 259 l 196 259 l 199 260 l 216 260 q 294 260 303 271 q 312 283 312 404 l 312 415 l 312 419 l 312 426 l 313 430 q 313 434 313 438 l 315 482 l 315 489 l 315 500 l 315 510 q 315 515 313 515 q 310 515 271 452 q 232 389 190 328 q 148 268 148 264 q 148 259 179 259 z m 456 74 q 456 27 437 11 q 417 -4 358 -4 l 338 -4 q 317 -4 305 18 q 293 41 293 76 l 297 116 q 297 122 288 127 q 250 151 231 156 q 213 160 163 164 q 113 167 96 175 q 57 193 57 229 q 57 266 95 329 q 183 475 298 633 q 333 681 375 681 l 385 681 q 422 681 434 665 q 440 656 440 604 l 439 593 q 439 582 439 570 l 437 468 q 437 343 444 314 q 452 286 465 271 q 501 231 501 231 l 501 225 q 501 182 485 161 q 454 123 454 110 l 456 93 z"},"~":{"x_min":0,"x_max":580,"ha":580,"o":"m 179 392 l 197 392 q 229 392 301 355 q 372 318 397 318 q 422 318 450 351 q 478 385 498 385 q 530 385 530 354 l 530 343 q 530 304 479 261 q 441 230 401 230 l 389 230 q 351 230 282 267 q 213 305 186 305 q 158 305 129 271 q 101 237 82 237 q 49 237 49 274 q 49 311 92 352 q 135 392 179 392 z"},"D":{"x_min":0,"x_max":708,"ha":708,"o":"m 303 89 l 315 89 q 395 89 445 159 q 495 229 495 342 l 495 358 q 495 470 444 538 q 393 605 311 605 l 305 604 q 264 604 254 594 q 245 583 245 543 l 245 522 l 245 515 l 245 480 l 246 473 l 246 438 l 246 416 l 246 289 l 246 267 l 246 225 l 245 217 l 245 203 l 245 175 l 245 140 q 245 109 258 99 q 271 89 303 89 z m 634 365 l 634 339 q 634 268 607 198 q 580 129 536 86 q 447 0 304 0 l 282 -1 l 195 -1 q 127 -1 105 5 q 84 11 84 28 l 84 37 q 84 41 95 67 q 107 92 113 119 q 118 146 118 212 l 119 225 q 119 237 119 249 l 120 261 l 120 346 l 120 370 q 120 516 115 556 q 109 595 97 623 q 84 651 84 662 q 84 683 111 688 q 138 693 244 693 l 266 694 l 299 694 q 388 693 444 672 q 562 627 610 499 q 634 436 634 365 z"},"^":{"x_min":0,"x_max":560,"ha":560,"o":"m 473 335 l 457 335 q 423 335 403 361 q 383 387 334 485 q 286 583 278 583 q 277 583 222 480 q 167 377 156 363 q 134 335 83 335 q 56 335 56 345 q 56 380 222 652 q 245 690 274 690 l 282 690 q 316 690 337 656 q 503 382 503 342 q 503 335 473 335 z"},"0":{"x_min":0,"x_max":572,"ha":572,"o":"m 377 368 q 377 481 352 541 q 326 600 286 600 q 246 600 220 541 q 193 482 193 384 q 192 370 192 362 l 192 333 l 192 325 q 192 220 209 166 q 227 111 246 94 q 265 78 279 78 l 289 78 q 325 78 348 132 q 375 196 375 286 l 376 300 l 377 323 z m 281 685 l 298 685 q 298 685 300 685 q 347 685 385 660 q 465 609 492 490 q 507 424 507 358 l 507 336 q 507 257 489 191 q 455 62 373 14 q 336 -8 292 -8 l 274 -8 q 182 -8 124 83 q 67 173 67 330 l 67 340 q 67 488 123 584 q 150 631 192 658 q 233 685 281 685 z"},"F":{"x_min":0,"x_max":562,"ha":562,"o":"m 231 456 q 231 413 290 413 q 313 413 340 422 q 367 431 382 431 q 410 431 426 404 q 442 376 442 340 q 442 304 432 289 q 422 274 392 274 q 386 274 364 281 q 341 289 302 289 q 263 289 248 270 q 232 251 232 200 q 232 148 239 123 q 245 98 253 74 q 261 50 261 34 q 261 6 208 6 l 194 6 q 125 6 98 25 q 71 43 71 78 q 71 87 87 120 q 102 152 106 192 q 110 231 110 354 q 110 478 105 520 q 100 562 95 576 q 91 590 83 609 q 75 628 75 638 q 75 661 98 668 q 148 686 235 686 l 250 686 q 311 688 329 688 l 407 688 q 483 688 506 673 q 528 658 528 609 q 528 576 495 576 q 488 576 455 583 q 422 591 395 596 q 368 601 317 601 q 266 601 252 573 q 231 531 231 456 z"},"`":{"x_min":0,"x_max":392,"ha":392,"o":"m 119 729 l 125 729 q 175 729 198 699 q 276 599 276 572 l 276 570 q 276 559 250 559 l 245 559 l 242 559 q 208 559 177 590 q 70 697 70 710 q 70 729 119 729 z"},"k":{"x_min":0,"x_max":555,"ha":555,"o":"m 495 2 l 478 2 q 402 2 376 23 q 362 35 346 68 q 330 101 314 126 q 262 209 245 209 q 224 209 224 166 q 224 147 229 117 q 235 88 235 85 q 235 47 214 36 q 193 25 145 25 q 97 25 83 33 q 69 41 69 74 l 70 85 l 72 108 l 74 134 q 80 192 80 349 q 80 507 77 557 q 75 606 64 637 q 54 668 54 671 l 54 684 q 54 701 74 708 q 94 714 136 714 l 152 714 q 179 714 189 704 q 200 693 200 651 l 199 635 q 199 618 199 594 l 199 537 q 199 313 220 313 q 238 313 290 379 q 307 402 322 425 q 336 449 353 459 q 369 469 427 469 q 485 469 485 448 q 485 438 419 376 q 353 314 353 288 q 353 253 443 136 q 533 20 533 16 q 533 2 495 2 z"},"u":{"x_min":0,"x_max":574,"ha":574,"o":"m 470 484 q 493 484 498 468 q 504 452 504 406 q 504 359 503 346 l 502 333 q 496 269 496 219 q 496 170 501 137 l 509 103 q 515 76 515 70 l 515 59 q 515 40 487 27 q 458 14 409 14 q 395 14 376 26 q 358 38 355 38 q 352 38 311 20 q 270 1 244 1 l 231 1 q 193 1 158 19 q 124 37 104 72 q 75 120 75 247 q 75 351 56 411 q 46 442 46 445 l 46 456 q 46 485 94 485 q 166 485 180 468 q 194 451 194 357 l 195 288 q 195 167 213 125 q 230 83 279 83 q 305 83 326 100 q 348 116 357 136 q 375 178 375 303 l 360 424 q 360 456 381 470 q 403 484 470 484 z"},"]":{"x_min":0,"x_max":368,"ha":368,"o":"m 81 -157 q 50 -157 50 -145 l 50 -136 q 50 -103 100 -87 q 151 -72 160 -42 q 169 -12 169 295 q 169 602 159 635 q 151 661 101 677 q 50 694 50 728 q 50 748 81 748 l 135 748 q 198 748 226 741 q 253 734 262 710 q 270 685 270 378 l 270 252 q 270 -89 261 -115 q 252 -141 222 -148 q 191 -156 135 -156 l 113 -157 z"},"U":{"x_min":0,"x_max":696,"ha":696,"o":"m 359 -9 l 339 -9 q 270 -9 216 19 q 116 70 98 197 q 90 250 90 383 q 90 516 86 535 q 83 554 69 579 q 56 604 56 628 q 56 653 80 676 q 93 689 141 689 q 190 689 215 679 q 241 668 241 640 q 241 632 230 582 q 220 532 220 365 q 220 198 247 146 q 281 80 355 80 q 444 80 480 151 q 508 207 508 358 q 508 509 501 568 q 495 626 495 650 q 495 673 515 681 q 535 689 572 689 q 608 689 620 679 q 643 660 643 638 l 643 624 q 643 609 630 579 q 616 550 613 521 q 610 492 610 373 q 610 253 603 197 q 595 141 566 93 q 537 45 482 18 q 427 -9 359 -9 z"},"o":{"x_min":0,"x_max":564,"ha":564,"o":"m 187 262 l 187 241 q 187 167 215 120 q 244 72 282 72 l 286 72 l 290 73 q 325 73 350 120 q 375 168 375 238 l 375 259 q 375 330 349 379 q 323 428 286 428 l 274 428 q 241 428 214 383 q 187 337 187 262 z m 506 278 l 506 261 q 506 147 436 67 q 405 31 362 12 q 318 -7 272 -7 l 264 -7 q 174 -7 118 57 q 88 92 74 137 q 61 182 61 222 l 61 239 l 62 248 q 62 295 79 346 q 116 450 207 490 q 246 507 286 507 l 310 507 q 351 507 387 489 q 424 471 450 440 q 477 410 491 366 q 506 322 506 278 z"},"N":{"x_min":0,"x_max":723,"ha":723,"o":"m 664 622 q 664 617 651 572 q 638 526 635 486 q 632 445 632 255 q 632 65 630 47 q 627 28 619 22 q 611 17 592 17 q 539 17 492 69 q 457 109 337 289 q 217 469 198 469 q 188 469 188 417 l 189 395 q 189 373 189 294 q 189 215 201 144 q 213 73 213 61 q 213 32 181 16 q 158 4 120 4 q 81 4 72 8 q 55 16 55 45 q 55 53 71 84 q 86 116 90 142 q 94 168 94 316 q 94 463 92 510 q 90 556 83 584 l 79 602 q 70 629 69 635 l 67 651 q 67 677 111 677 q 195 677 248 624 q 267 605 395 419 q 521 233 533 233 q 537 233 537 387 q 537 541 526 597 q 515 652 515 654 q 515 667 530 677 q 544 687 581 687 l 601 687 q 629 687 647 670 q 664 653 664 622 z"},"+":{"x_min":0,"x_max":579,"ha":579,"o":"m 503 328 l 503 300 q 503 259 492 255 q 480 250 407 250 q 335 250 333 247 q 330 243 330 158 q 330 73 329 67 q 324 51 288 51 l 271 51 q 249 51 246 59 q 243 68 243 153 q 243 238 237 243 q 231 247 164 247 q 97 247 84 250 q 72 253 72 272 l 72 310 q 72 334 83 339 q 93 344 165 344 q 237 344 241 347 q 244 351 244 436 q 244 521 250 530 q 256 539 292 539 q 328 539 331 529 q 335 520 335 434 q 335 349 341 347 q 346 344 425 344 q 503 344 503 328 z"},"G":{"x_min":0,"x_max":711,"ha":711,"o":"m 548 334 q 660 334 660 292 q 660 241 629 118 q 620 82 600 64 q 581 46 491 22 q 401 -2 372 -2 l 353 -2 q 295 -2 238 20 q 181 42 138 89 q 94 136 73 198 q 51 259 51 321 l 51 342 q 51 491 143 594 q 184 640 245 666 q 306 691 375 691 l 395 691 q 400 691 523 676 q 552 672 572 661 q 591 650 604 625 q 617 599 617 575 q 617 551 605 540 q 594 528 582 528 q 570 528 530 552 q 490 575 457 587 q 423 599 381 599 q 300 599 249 540 q 221 509 205 459 q 189 409 189 350 q 189 241 236 172 q 262 133 300 112 q 337 91 377 91 q 417 91 446 115 q 474 139 474 173 q 474 208 451 251 q 428 294 428 300 q 428 316 462 325 q 495 334 548 334 z"},"q":{"x_min":0,"x_max":574,"ha":574,"o":"m 360 283 q 360 425 283 425 l 279 425 l 275 425 q 242 425 214 381 q 186 337 186 279 l 185 269 l 185 242 q 185 181 210 134 q 235 86 268 86 l 282 86 q 321 86 340 126 q 358 167 358 220 q 359 229 359 234 l 360 254 z m 523 -132 l 523 -142 q 523 -173 500 -186 q 478 -198 415 -198 l 405 -198 q 385 -198 369 -187 q 354 -175 354 -158 q 354 -141 363 -104 q 373 -68 373 -34 q 373 13 292 13 l 259 12 q 177 12 121 82 q 64 152 64 260 l 64 273 q 64 423 172 484 q 208 505 248 505 l 258 505 q 281 505 322 490 q 363 476 368 476 q 373 476 391 484 q 408 491 428 491 q 471 491 482 452 q 484 447 484 313 l 483 302 q 483 291 483 279 l 484 231 l 487 137 l 493 23 q 493 -26 498 -49 q 503 -71 513 -95 q 523 -120 523 -132 z"},"d":{"x_min":0,"x_max":578,"ha":578,"o":"m 358 306 q 358 353 338 387 q 318 421 281 421 l 271 421 q 239 421 212 380 q 186 339 186 279 l 185 264 l 185 231 q 185 169 208 125 q 231 81 269 81 l 280 81 q 313 81 335 115 q 357 149 357 201 q 359 214 359 215 l 360 239 l 360 278 l 359 283 l 359 292 q 358 302 358 306 z m 495 47 q 495 24 474 16 q 453 7 422 7 q 390 7 366 19 q 342 31 340 31 l 299 9 q 270 -6 238 -6 l 227 -6 q 193 -6 160 9 q 127 23 109 48 q 64 110 64 211 l 64 238 q 64 287 84 343 q 105 398 139 434 q 174 469 207 480 q 240 492 287 492 q 335 492 353 509 q 362 517 362 552 q 362 586 351 623 q 339 660 339 672 q 339 714 413 714 l 436 714 q 480 714 487 684 q 493 661 493 539 l 481 196 q 481 120 488 86 q 495 51 495 47 z"},"1":{"x_min":0,"x_max":540,"ha":540,"o":"m 331 -1 l 273 -1 q 231 -1 197 16 q 163 34 163 60 q 163 85 188 122 q 213 158 221 184 q 229 209 229 329 q 229 449 211 493 q 201 519 159 539 q 116 558 116 575 l 116 581 q 116 598 148 614 q 262 671 300 671 q 337 671 345 636 q 351 613 351 419 q 351 225 356 193 q 362 162 387 122 q 411 82 411 56 l 411 48 q 411 30 386 14 q 361 -1 331 -1 z"},"5":{"x_min":0,"x_max":561,"ha":561,"o":"m 495 229 l 495 213 q 494 164 475 120 q 415 -13 244 -13 q 165 -13 111 14 q 57 41 57 71 q 57 123 107 123 q 120 123 169 98 q 219 74 248 74 q 306 74 339 110 q 369 160 372 188 q 372 188 372 189 q 372 268 323 303 q 285 330 196 330 l 181 329 q 171 328 153 328 q 118 328 104 349 q 90 371 90 407 q 90 444 110 568 q 118 618 131 636 q 145 654 172 659 q 200 665 263 665 q 327 665 369 669 q 412 673 430 673 q 449 673 462 667 q 475 661 475 641 q 475 592 442 574 q 422 562 328 562 q 234 562 215 546 q 188 522 188 467 q 188 443 197 437 q 205 432 248 432 q 292 432 345 415 q 440 385 476 307 q 495 267 495 229 z"}}}
